<?xml version="1.0" encoding="UTF-8"?>
<!DOCTYPE svg PUBLIC "-//W3C//DTD SVG 1.1//EN" "http://www.w3.org/Graphics/SVG/1.1/DTD/svg11.dtd">
<svg xmlns="http://www.w3.org/2000/svg" version="1.1" width="500px" height="500px" style="shape-rendering:geometricPrecision; text-rendering:geometricPrecision; image-rendering:optimizeQuality; fill-rule:evenodd; clip-rule:evenodd" xmlns:xlink="http://www.w3.org/1999/xlink">
<g><path style="opacity:0.995" fill="#d32b00" d="M 136.5,152.5 C 131.881,157.785 126.881,162.785 121.5,167.5C 117.523,160.69 111.856,155.856 104.5,153C 101.833,152.333 99.1667,152.333 96.5,153C 81.2239,158.967 66.8906,157.3 53.5,148C 28.7491,126.085 16.5824,98.5849 17,65.5C 17.8459,53.66 24.0125,46.4933 35.5,44C 68.6032,43.4676 96.1032,55.6343 118,80.5C 129.701,95.471 131.367,111.471 123,128.5C 122.537,139.223 127.037,147.223 136.5,152.5 Z"/></g>
<g><path style="opacity:0.979" fill="#d42b00" d="M 381.5,170.5 C 376.167,165.833 371.167,160.833 366.5,155.5C 376.686,147.104 379.686,136.604 375.5,124C 375.403,120.362 376.57,117.195 379,114.5C 401.865,91.3032 424.365,67.8032 446.5,44C 452.391,43.6378 453.891,46.1378 451,51.5C 434,69.1667 417,86.8333 400,104.5C 398.67,109.498 400.504,111.664 405.5,111C 423.167,92.6667 440.833,74.3333 458.5,56C 463.496,55.3357 465.33,57.5023 464,62.5C 446.667,80.5 429.333,98.5 412,116.5C 411.005,122.241 413.171,124.075 418.5,122C 435.866,104.302 452.866,86.3021 469.5,68C 473.359,65.6209 476.025,66.6209 477.5,71C 460.747,90.4233 443.247,109.257 425,127.5C 422.614,131.337 423.614,134.004 428,135.5C 446.534,117.634 464.367,99.1339 481.5,80C 486.862,77.109 489.362,78.609 489,84.5C 465.476,109.69 441.642,134.523 417.5,159C 412.325,159.467 407.158,159.3 402,158.5C 399.075,158.523 396.241,159.023 393.5,160C 388.825,162.821 384.825,166.321 381.5,170.5 Z"/></g>
<g><path style="opacity:0.963" fill="#020100" d="M 366.5,155.5 C 371.167,160.833 376.167,165.833 381.5,170.5C 415.784,211.273 429.784,258.273 423.5,311.5C 421.334,311.166 419.001,311.166 416.5,311.5C 415.041,311.567 413.708,311.234 412.5,310.5C 412.918,309.778 413.584,309.278 414.5,309C 412.09,308.943 410.756,307.776 410.5,305.5C 415.265,244.551 393.932,195.051 346.5,157C 296.604,122.354 243.271,116.021 186.5,138C 130.336,164.18 97.8361,208.013 89,269.5C 88.4747,282.175 88.6413,294.842 89.5,307.5C 88.2502,307.577 87.4169,308.244 87,309.5C 85.6054,308.185 84.6054,308.519 84,310.5C 83.586,310.043 83.086,309.709 82.5,309.5C 80.677,310.747 78.677,311.414 76.5,311.5C 69.4382,256.364 84.4382,208.364 121.5,167.5C 126.881,162.785 131.881,157.785 136.5,152.5C 189.935,110.705 248.935,100.872 313.5,123C 333.145,130.854 350.812,141.687 366.5,155.5 Z"/></g>
<g><path style="opacity:1" fill="#f2a733" d="M 410.5,305.5 C 409.185,307.599 407.518,307.933 405.5,306.5C 410.704,246.764 390.037,198.264 343.5,161C 295.582,127.76 244.248,121.427 189.5,142C 121.029,175.361 89.362,230.194 94.5,306.5C 94.1667,306.5 93.8333,306.5 93.5,306.5C 92.1667,306.833 90.8333,307.167 89.5,307.5C 88.6413,294.842 88.4747,282.175 89,269.5C 97.8361,208.013 130.336,164.18 186.5,138C 243.271,116.021 296.604,122.354 346.5,157C 393.932,195.051 415.265,244.551 410.5,305.5 Z"/></g>
<g><path style="opacity:1" fill="#d32c00" d="M 405.5,306.5 C 392.685,303.335 379.685,301.001 366.5,299.5C 368.589,270.754 361.756,244.421 346,220.5C 342.598,188.364 324.765,174.197 292.5,178C 285.835,176.346 280.502,172.679 276.5,167C 256.722,154.323 236.389,153.323 215.5,164C 209.401,168.098 204.734,173.431 201.5,180C 195.422,184.04 188.755,186.373 181.5,187C 165.435,193.066 155.935,204.566 153,221.5C 137.309,245.096 130.809,271.096 133.5,299.5C 120.255,300.652 107.255,302.985 94.5,306.5C 89.362,230.194 121.029,175.361 189.5,142C 244.248,121.427 295.582,127.76 343.5,161C 390.037,198.264 410.704,246.764 405.5,306.5 Z"/></g>
<g><path style="opacity:1" fill="#080707" d="M 405.5,306.5 C 407.518,307.933 409.185,307.599 410.5,305.5C 410.756,307.776 412.09,308.943 414.5,309C 413.584,309.278 412.918,309.778 412.5,310.5C 389.542,304.669 366.209,300.836 342.5,299C 283.194,294.702 223.861,294.369 164.5,298C 140.848,299.688 117.515,303.188 94.5,308.5C 94.1667,307.833 93.8333,307.167 93.5,306.5C 93.8333,306.5 94.1667,306.5 94.5,306.5C 107.255,302.985 120.255,300.652 133.5,299.5C 130.809,271.096 137.309,245.096 153,221.5C 155.935,204.566 165.435,193.066 181.5,187C 188.755,186.373 195.422,184.04 201.5,180C 204.734,173.431 209.401,168.098 215.5,164C 236.389,153.323 256.722,154.323 276.5,167C 280.502,172.679 285.835,176.346 292.5,178C 324.765,174.197 342.598,188.364 346,220.5C 361.756,244.421 368.589,270.754 366.5,299.5C 379.685,301.001 392.685,303.335 405.5,306.5 Z"/></g>
<g><path style="opacity:1" fill="#fcfcf4" d="M 232.5,160.5 C 250.908,157.805 266.741,162.805 280,175.5C 282.748,180.666 285.748,185.666 289,190.5C 295.148,198.439 302.981,200.939 312.5,198C 302.333,198.083 294.666,193.75 289.5,185C 306.413,178.316 321.246,181.483 334,194.5C 346.754,213.882 344.92,231.716 328.5,248C 320.092,254.025 310.759,257.025 300.5,257C 304.112,255.861 307.446,254.194 310.5,252C 312.377,249.769 313.21,247.269 313,244.5C 310.078,249.048 305.911,251.715 300.5,252.5C 300.351,251.448 300.517,250.448 301,249.5C 309.888,242.723 314.221,233.723 314,222.5C 311.458,232.438 306.291,240.604 298.5,247C 274.867,259.738 254.034,256.238 236,236.5C 231.435,229.476 228.435,221.81 227,213.5C 224.828,220.892 225.995,227.892 230.5,234.5C 219.545,236.655 209.212,240.489 199.5,246C 191.266,246.296 185.1,242.796 181,235.5C 179.216,231.599 177.716,227.599 176.5,223.5C 175.624,238.081 182.291,247.081 196.5,250.5C 196.5,251.833 196.5,253.167 196.5,254.5C 192.818,254.665 189.152,254.499 185.5,254C 177.328,247.75 176.662,248.417 183.5,256C 187.546,258.174 191.879,259.007 196.5,258.5C 196.5,259.833 196.5,261.167 196.5,262.5C 172.195,261.54 158.862,249.04 156.5,225C 160.204,200.471 174.537,188.304 199.5,188.5C 199.445,196.121 200.778,203.454 203.5,210.5C 197.683,184.797 207.349,168.13 232.5,160.5 Z"/></g>
<g><path style="opacity:1" fill="#fafaf2" d="M 228.5,238.5 C 230.199,238.34 231.866,238.506 233.5,239C 251.2,258.242 272.2,262.742 296.5,252.5C 296.666,262.172 296.5,271.839 296,281.5C 264.154,265.511 232.321,265.511 200.5,281.5C 199.334,270.849 199.168,260.182 200,249.5C 209.209,244.801 218.709,241.135 228.5,238.5 Z"/></g>
<g><path style="opacity:1" fill="#f9f8f7" d="M 412.5,310.5 C 413.708,311.234 415.041,311.567 416.5,311.5C 421.232,313.702 425.899,316.202 430.5,319C 432.856,320.827 433.523,322.993 432.5,325.5C 431.833,325.5 431.167,325.5 430.5,325.5C 431.512,326.872 432.512,328.205 433.5,329.5C 433.631,330.239 433.464,330.906 433,331.5C 431.164,328.621 428.664,327.121 425.5,327C 426.328,327.915 427.328,328.581 428.5,329C 427.956,329.717 427.289,330.217 426.5,330.5C 428.808,332.471 431.142,334.471 433.5,336.5C 433.5,336.833 433.5,337.167 433.5,337.5C 433.565,337.938 433.399,338.272 433,338.5C 432.184,337.177 431.017,336.511 429.5,336.5C 430.167,337.833 431.167,338.833 432.5,339.5C 432.5,339.833 432.5,340.167 432.5,340.5C 431.833,340.5 431.167,340.5 430.5,340.5C 431.512,341.872 432.512,343.205 433.5,344.5C 433.631,345.239 433.464,345.906 433,346.5C 431.164,343.621 428.664,342.121 425.5,342C 426.328,342.915 427.328,343.581 428.5,344C 427.956,344.717 427.289,345.217 426.5,345.5C 428.808,347.471 431.142,349.471 433.5,351.5C 433.5,351.833 433.5,352.167 433.5,352.5C 433.565,352.938 433.399,353.272 433,353.5C 432.184,352.177 431.017,351.511 429.5,351.5C 430.66,353.203 429.993,353.869 427.5,353.5C 429.5,355.5 431.5,357.5 433.5,359.5C 433.631,360.239 433.464,360.906 433,361.5C 431.164,358.621 428.664,357.121 425.5,357C 426.328,357.915 427.328,358.581 428.5,359C 427.956,359.717 427.289,360.217 426.5,360.5C 428.808,362.471 431.142,364.471 433.5,366.5C 433.5,366.833 433.5,367.167 433.5,367.5C 433.565,367.938 433.399,368.272 433,368.5C 432.184,367.177 431.017,366.511 429.5,366.5C 430.66,368.203 429.993,368.869 427.5,368.5C 428.853,370.183 430.52,371.516 432.5,372.5C 434.319,373.936 434.652,375.603 433.5,377.5C 429.333,373.913 424.666,371.08 419.5,369C 406.443,364.569 393.11,361.402 379.5,359.5C 320.744,351.937 261.744,349.437 202.5,352C 171.278,352.778 140.278,355.778 109.5,361C 102.483,362.953 95.4832,364.787 88.5,366.5C 80.0039,368.165 72.5039,371.832 66,377.5C 65.4209,376.072 65.5876,374.738 66.5,373.5C 69.2791,372.383 69.6124,371.217 67.5,370C 68.1667,369.333 68.8333,368.667 69.5,368C 67.9343,367.7 66.601,368.2 65.5,369.5C 65.5,368.833 65.5,368.167 65.5,367.5C 68.0026,365.167 70.6693,363.001 73.5,361C 70.0569,360.779 69.7236,359.779 72.5,358C 70.255,358.195 68.4216,359.362 67,361.5C 66.5357,360.906 66.369,360.239 66.5,359.5C 66.5,359.167 66.5,358.833 66.5,358.5C 67.8333,357.833 68.8333,356.833 69.5,355.5C 67.1582,355.225 67.1582,354.392 69.5,353C 67.9343,352.7 66.601,353.2 65.5,354.5C 65.5,353.833 65.5,353.167 65.5,352.5C 68.0026,350.167 70.6693,348.001 73.5,346C 70.0569,345.779 69.7236,344.779 72.5,343C 70.255,343.195 68.4216,344.362 67,346.5C 66.5357,345.906 66.369,345.239 66.5,344.5C 66.5,344.167 66.5,343.833 66.5,343.5C 67.8333,342.833 68.8333,341.833 69.5,340.5C 67.1582,340.225 67.1582,339.392 69.5,338C 67.9343,337.7 66.601,338.2 65.5,339.5C 65.5,338.833 65.5,338.167 65.5,337.5C 68.0026,335.167 70.6693,333.001 73.5,331C 70.0569,330.779 69.7236,329.779 72.5,328C 70.255,328.195 68.4216,329.362 67,331.5C 66.5357,330.906 66.369,330.239 66.5,329.5C 66.5,329.167 66.5,328.833 66.5,328.5C 67.8333,327.833 68.8333,326.833 69.5,325.5C 68.7611,325.631 68.0944,325.464 67.5,325C 69.5,323.333 71.5,321.667 73.5,320C 71.8925,320.019 70.2259,320.185 68.5,320.5C 76.0633,314.409 84.7299,310.409 94.5,308.5C 117.515,303.188 140.848,299.688 164.5,298C 223.861,294.369 283.194,294.702 342.5,299C 366.209,300.836 389.542,304.669 412.5,310.5 Z"/></g>
<g><path style="opacity:1" fill="#d5340a" d="M 202.5,302.5 C 208.588,304.365 214.922,305.031 221.5,304.5C 223.411,314.071 226.245,323.404 230,332.5C 231.514,337.029 233.681,341.195 236.5,345C 230.509,345.499 224.509,345.666 218.5,345.5C 218.54,342.119 218.207,338.786 217.5,335.5C 212.489,335.334 207.489,335.501 202.5,336C 200.528,339.016 200.195,342.183 201.5,345.5C 198.833,346.833 196.167,346.833 193.5,345.5C 197.987,333.874 201.987,322.041 205.5,310C 203.807,307.78 202.807,305.28 202.5,302.5 Z"/></g>
<g><path style="opacity:1" fill="#d6370e" d="M 239.5,302.5 C 245.384,303.906 251.384,304.906 257.5,305.5C 256.521,317.449 256.187,329.449 256.5,341.5C 259.833,341.5 263.167,341.5 266.5,341.5C 266.629,335.974 269.296,333.14 274.5,333C 273.209,336.455 273.209,339.955 274.5,343.5C 275.086,343.291 275.586,342.957 276,342.5C 280.391,332.659 284.391,322.659 288,312.5C 288,309.167 288,305.833 288,302.5C 289.419,303.46 290.919,304.293 292.5,305C 296.821,305.499 301.154,305.666 305.5,305.5C 307.711,318.343 310.877,331.009 315,343.5C 315.956,344.579 316.789,345.745 317.5,347C 311.496,347.3 305.496,347.134 299.5,346.5C 299.751,343.091 299.417,339.758 298.5,336.5C 293.544,335.506 288.544,335.173 283.5,335.5C 282.793,338.786 282.46,342.119 282.5,345.5C 268.151,345.833 253.818,345.499 239.5,344.5C 239.808,343.692 240.308,343.025 241,342.5C 241.997,329.047 241.497,315.714 239.5,302.5 Z"/></g>
<g><path style="opacity:1" fill="#d53309" d="M 167.5,305.5 C 173.499,306.034 179.499,306.701 185.5,307.5C 184.923,309.106 184.59,310.772 184.5,312.5C 185.199,320.485 185.699,328.485 186,336.5C 186.637,340.085 187.97,343.085 190,345.5C 183.609,349.966 177.942,349.299 173,343.5C 172.252,338.519 171.752,333.519 171.5,328.5C 168.167,328.5 164.833,328.5 161.5,328.5C 161.334,333.179 161.501,337.845 162,342.5C 162.45,344.519 163.283,346.352 164.5,348C 158.569,349.471 152.569,349.804 146.5,349C 147.532,337.888 147.365,326.721 146,315.5C 143.073,313.93 142.073,311.596 143,308.5C 148.742,308.74 154.576,308.406 160.5,307.5C 160.606,313.319 160.606,319.319 160.5,325.5C 163.833,325.5 167.167,325.5 170.5,325.5C 170.666,321.486 170.499,317.486 170,313.5C 167.797,311.331 166.964,308.665 167.5,305.5 Z"/></g>
<g><path style="opacity:1" fill="#d53207" d="M 327.5,348.5 C 325.5,347.833 323.5,347.167 321.5,346.5C 323.489,336.654 324.822,326.654 325.5,316.5C 324.833,313.833 324.167,311.167 323.5,308.5C 323.477,306.933 323.977,305.6 325,304.5C 326.8,306.317 328.966,307.484 331.5,308C 334.882,308.176 338.215,308.676 341.5,309.5C 339.938,312.974 339.105,316.64 339,320.5C 338.389,328.831 337.889,337.164 337.5,345.5C 340.897,346.192 344.23,346.192 347.5,345.5C 348.652,340.496 351.652,337.996 356.5,338C 354.43,341.883 354.097,345.883 355.5,350C 346.157,349.966 336.824,349.466 327.5,348.5 Z"/></g>
<g><path style="opacity:1" fill="#7a7a7a" d="M 95.5,310.5 C 96.8734,310.343 98.2068,310.51 99.5,311C 92.1832,313.445 84.8499,315.445 77.5,317C 83.4974,314.512 89.4974,312.345 95.5,310.5 Z"/></g>
<g><path style="opacity:1" fill="#6e6e6e" d="M 401.5,311.5 C 401.735,310.903 402.235,310.57 403,310.5C 405.856,311.256 408.689,312.089 411.5,313C 408.1,313.153 404.767,312.653 401.5,311.5 Z"/></g>
<g><path style="opacity:1" fill="#fdf4f2" d="M 210.5,331.5 C 207.918,331.975 205.918,331.308 204.5,329.5C 205.533,324.37 207.033,319.37 209,314.5C 211.367,319.938 213.534,325.438 215.5,331C 213.866,331.494 212.199,331.66 210.5,331.5 Z"/></g>
<g><path style="opacity:1" fill="#fdf4f1" d="M 296.5,329.5 C 293.316,331.414 289.649,332.08 285.5,331.5C 287.561,326.155 289.728,320.822 292,315.5C 294.419,319.833 295.919,324.499 296.5,329.5 Z"/></g>
<g><path style="opacity:1" fill="#6d6d6d" d="M 417.5,316.5 C 419.089,315.379 420.756,315.546 422.5,317C 420.803,317.384 419.137,317.218 417.5,316.5 Z"/></g>
<g><path style="opacity:1" fill="#686868" d="M 421.5,320.5 C 417.43,319.644 413.43,318.477 409.5,317C 413.921,316.864 417.921,318.031 421.5,320.5 Z"/></g>
<g><path style="opacity:1" fill="#7d7d7d" d="M 90.5,315.5 C 91.8734,315.343 93.2068,315.51 94.5,316C 89.1899,317.777 83.8566,319.11 78.5,320C 82.5711,318.37 86.5711,316.87 90.5,315.5 Z"/></g>
<g><path style="opacity:1" fill="#7c7c7c" d="M 90.5,320.5 C 92.5273,318.912 94.8606,318.412 97.5,319C 95.26,319.977 92.9267,320.477 90.5,320.5 Z"/></g>
<g><path style="opacity:1" fill="#6b6b6b" d="M 418.5,323.5 C 413.156,322.109 407.823,320.609 402.5,319C 408.305,318.993 413.639,320.493 418.5,323.5 Z"/></g>
<g><path style="opacity:1" fill="#1c1c1c" d="M 93.5,306.5 C 93.8333,307.167 94.1667,307.833 94.5,308.5C 84.7299,310.409 76.0633,314.409 68.5,320.5C 67.0351,321.406 66.0351,322.739 65.5,324.5C 65.76,325.905 66.0934,327.238 66.5,328.5C 66.5,328.833 66.5,329.167 66.5,329.5C 66.6132,331.952 66.2799,334.618 65.5,337.5C 65.5,338.167 65.5,338.833 65.5,339.5C 65.7921,340.874 66.1254,342.207 66.5,343.5C 66.5,343.833 66.5,344.167 66.5,344.5C 66.6132,346.952 66.2799,349.618 65.5,352.5C 65.5,353.167 65.5,353.833 65.5,354.5C 65.7921,355.874 66.1254,357.207 66.5,358.5C 66.5,358.833 66.5,359.167 66.5,359.5C 66.6132,361.952 66.2799,364.618 65.5,367.5C 65.5,368.167 65.5,368.833 65.5,369.5C 65.7921,370.874 66.1254,372.207 66.5,373.5C 65.5876,374.738 65.4209,376.072 66,377.5C 72.5039,371.832 80.0039,368.165 88.5,366.5C 88.5,367.167 88.8333,367.5 89.5,367.5C 85.256,369.281 80.9227,371.115 76.5,373C 75.4238,374.726 75.2571,376.559 76,378.5C 78.9563,375.773 82.4563,374.273 86.5,374C 92.5,373.333 98.5,373.333 104.5,374C 107.191,374.156 109.524,374.989 111.5,376.5C 110.833,376.5 110.5,376.833 110.5,377.5C 108.883,376.962 107.216,376.629 105.5,376.5C 108.427,384.481 105.761,389.315 97.5,391C 91.8333,391.667 86.1667,391.667 80.5,391C 77.4173,390.214 75.2506,388.381 74,385.5C 74.9602,374.293 72.2935,372.96 66,381.5C 65.1397,385.952 66.6397,389.452 70.5,392C 83.2637,397.485 96.2637,397.985 109.5,393.5C 110.791,393.263 111.791,393.596 112.5,394.5C 98.6157,400.909 84.6157,401.076 70.5,395C 67.6667,393.5 65.5,391.333 64,388.5C 63.3333,366.167 63.3333,343.833 64,321.5C 67.4399,317.223 71.6066,313.89 76.5,311.5C 78.677,311.414 80.677,310.747 82.5,309.5C 83.086,309.709 83.586,310.043 84,310.5C 84.6054,308.519 85.6054,308.185 87,309.5C 87.4169,308.244 88.2502,307.577 89.5,307.5C 90.8333,307.167 92.1667,306.833 93.5,306.5 Z"/></g>
<g><path style="opacity:1" fill="#767676" d="M 90.5,320.5 C 86.7911,322.569 82.7911,323.735 78.5,324C 82.3072,322.119 86.3072,320.953 90.5,320.5 Z"/></g>
<g><path style="opacity:1" fill="#5c5c5c" d="M 421.5,320.5 C 424.089,320.461 426.089,321.461 427.5,323.5C 425.181,323.008 423.181,322.008 421.5,320.5 Z"/></g>
<g><path style="opacity:1" fill="#5f5f5f" d="M 427.5,323.5 C 429.027,323.427 430.027,324.094 430.5,325.5C 428.973,325.573 427.973,324.906 427.5,323.5 Z"/></g>
<g><path style="opacity:1" fill="#5e5e5e" d="M 69.5,325.5 C 70.0024,323.915 71.0024,323.415 72.5,324C 71.7562,325.039 70.7562,325.539 69.5,325.5 Z"/></g>
<g><path style="opacity:1" fill="#828282" d="M 92.5,322.5 C 94.3786,322.393 94.7119,322.893 93.5,324C 90.8738,324.995 88.2071,325.328 85.5,325C 88.0037,324.302 90.337,323.469 92.5,322.5 Z"/></g>
<g><path style="opacity:1" fill="#6e6e6e" d="M 418.5,323.5 C 420.308,323.491 421.975,323.991 423.5,325C 421.465,325.599 419.799,325.099 418.5,323.5 Z"/></g>
<g><path style="opacity:1" fill="#646464" d="M 420.5,327.5 C 417.432,326.978 414.432,326.145 411.5,325C 414.913,324.529 417.913,325.362 420.5,327.5 Z"/></g>
<g><path style="opacity:1" fill="#979797" d="M 69.5,325.5 C 68.8333,326.833 67.8333,327.833 66.5,328.5C 66.0934,327.238 65.76,325.905 65.5,324.5C 66.0351,322.739 67.0351,321.406 68.5,320.5C 70.2259,320.185 71.8925,320.019 73.5,320C 71.5,321.667 69.5,323.333 67.5,325C 68.0944,325.464 68.7611,325.631 69.5,325.5 Z"/></g>
<g><path style="opacity:1" fill="#707070" d="M 417.5,330.5 C 412.029,329.51 406.696,328.01 401.5,326C 407.228,326.264 412.561,327.764 417.5,330.5 Z"/></g>
<g><path style="opacity:1" fill="#888888" d="M 95.5,325.5 C 98.5983,325.413 98.9316,325.913 96.5,327C 89.4603,329.24 82.4603,331.24 75.5,333C 82.1603,330.173 88.827,327.673 95.5,325.5 Z"/></g>
<g><path style="opacity:1" fill="#7c7c7c" d="M 430.5,325.5 C 431.167,325.5 431.833,325.5 432.5,325.5C 434.62,326.403 434.954,327.737 433.5,329.5C 432.512,328.205 431.512,326.872 430.5,325.5 Z"/></g>
<g><path style="opacity:1" fill="#5d5d5d" d="M 420.5,327.5 C 423.089,327.461 425.089,328.461 426.5,330.5C 424.181,330.008 422.181,329.008 420.5,327.5 Z"/></g>
<g><path style="opacity:1" fill="#9b9b9b" d="M 65.5,337.5 C 66.2799,334.618 66.6132,331.952 66.5,329.5C 66.369,330.239 66.5357,330.906 67,331.5C 68.4216,329.362 70.255,328.195 72.5,328C 69.7236,329.779 70.0569,330.779 73.5,331C 70.6693,333.001 68.0026,335.167 65.5,337.5 Z"/></g>
<g><path style="opacity:1" fill="#e57e63" d="M 204.5,329.5 C 205.918,331.308 207.918,331.975 210.5,331.5C 208.393,332.468 206.059,332.802 203.5,332.5C 203.263,331.209 203.596,330.209 204.5,329.5 Z"/></g>
<g><path style="opacity:1" fill="#e88a71" d="M 296.5,329.5 C 297.404,330.209 297.737,331.209 297.5,332.5C 293.298,332.817 289.298,332.483 285.5,331.5C 289.649,332.08 293.316,331.414 296.5,329.5 Z"/></g>
<g><path style="opacity:1" fill="#696969" d="M 417.5,330.5 C 419.308,330.491 420.975,330.991 422.5,332C 420.465,332.599 418.799,332.099 417.5,330.5 Z"/></g>
<g><path style="opacity:1" fill="#686868" d="M 421.5,335.5 C 417.43,334.644 413.43,333.477 409.5,332C 413.921,331.864 417.921,333.031 421.5,335.5 Z"/></g>
<g><path style="opacity:1" fill="#7d7d7d" d="M 90.5,330.5 C 91.8734,330.343 93.2068,330.51 94.5,331C 89.1899,332.777 83.8566,334.11 78.5,335C 82.5711,333.37 86.5711,331.87 90.5,330.5 Z"/></g>
<g><path style="opacity:1" fill="#7c7c7c" d="M 90.5,335.5 C 92.5273,333.912 94.8606,333.412 97.5,334C 95.26,334.977 92.9267,335.477 90.5,335.5 Z"/></g>
<g><path style="opacity:1" fill="#6b6b6b" d="M 418.5,338.5 C 413.156,337.109 407.823,335.609 402.5,334C 408.305,333.993 413.639,335.493 418.5,338.5 Z"/></g>
<g><path style="opacity:1" fill="#656565" d="M 429.5,336.5 C 428.244,336.539 427.244,336.039 426.5,335C 427.998,334.415 428.998,334.915 429.5,336.5 Z"/></g>
<g><path style="opacity:1" fill="#8e8e8e" d="M 433.5,329.5 C 433.603,331.782 433.603,334.115 433.5,336.5C 431.142,334.471 428.808,332.471 426.5,330.5C 427.289,330.217 427.956,329.717 428.5,329C 427.328,328.581 426.328,327.915 425.5,327C 428.664,327.121 431.164,328.621 433,331.5C 433.464,330.906 433.631,330.239 433.5,329.5 Z"/></g>
<g><path style="opacity:1" fill="#5c5c5c" d="M 421.5,335.5 C 424.089,335.461 426.089,336.461 427.5,338.5C 425.181,338.008 423.181,337.008 421.5,335.5 Z"/></g>
<g><path style="opacity:1" fill="#808080" d="M 429.5,336.5 C 431.017,336.511 432.184,337.177 433,338.5C 433.399,338.272 433.565,337.938 433.5,337.5C 434.757,338.623 434.424,339.289 432.5,339.5C 431.167,338.833 430.167,337.833 429.5,336.5 Z"/></g>
<g><path style="opacity:1" fill="#828282" d="M 90.5,335.5 C 87.7855,337.236 84.7855,338.07 81.5,338C 84.3117,336.451 87.3117,335.618 90.5,335.5 Z"/></g>
<g><path style="opacity:1" fill="#5f5f5f" d="M 427.5,338.5 C 429.027,338.427 430.027,339.094 430.5,340.5C 428.973,340.573 427.973,339.906 427.5,338.5 Z"/></g>
<g><path style="opacity:1" fill="#5e5e5e" d="M 69.5,340.5 C 70.0024,338.915 71.0024,338.415 72.5,339C 71.7562,340.039 70.7562,340.539 69.5,340.5 Z"/></g>
<g><path style="opacity:1" fill="#828282" d="M 92.5,337.5 C 94.3786,337.393 94.7119,337.893 93.5,339C 90.8738,339.995 88.2071,340.328 85.5,340C 88.0037,339.302 90.337,338.469 92.5,337.5 Z"/></g>
<g><path style="opacity:1" fill="#6e6e6e" d="M 418.5,338.5 C 420.308,338.491 421.975,338.991 423.5,340C 421.465,340.599 419.799,340.099 418.5,338.5 Z"/></g>
<g><path style="opacity:1" fill="#646464" d="M 420.5,342.5 C 417.432,341.978 414.432,341.145 411.5,340C 414.913,339.529 417.913,340.362 420.5,342.5 Z"/></g>
<g><path style="opacity:1" fill="#858585" d="M 69.5,340.5 C 68.8333,341.833 67.8333,342.833 66.5,343.5C 66.1254,342.207 65.7921,340.874 65.5,339.5C 66.601,338.2 67.9343,337.7 69.5,338C 67.1582,339.392 67.1582,340.225 69.5,340.5 Z"/></g>
<g><path style="opacity:1" fill="#707070" d="M 417.5,345.5 C 412.029,344.51 406.696,343.01 401.5,341C 407.228,341.264 412.561,342.764 417.5,345.5 Z"/></g>
<g><path style="opacity:1" fill="#888888" d="M 95.5,340.5 C 98.5983,340.413 98.9316,340.913 96.5,342C 89.4603,344.24 82.4603,346.24 75.5,348C 82.1603,345.173 88.827,342.673 95.5,340.5 Z"/></g>
<g><path style="opacity:1" fill="#7c7c7c" d="M 430.5,340.5 C 431.167,340.5 431.833,340.5 432.5,340.5C 434.62,341.403 434.954,342.737 433.5,344.5C 432.512,343.205 431.512,341.872 430.5,340.5 Z"/></g>
<g><path style="opacity:1" fill="#5d5d5d" d="M 420.5,342.5 C 423.089,342.461 425.089,343.461 426.5,345.5C 424.181,345.008 422.181,344.008 420.5,342.5 Z"/></g>
<g><path style="opacity:1" fill="#9b9b9b" d="M 65.5,352.5 C 66.2799,349.618 66.6132,346.952 66.5,344.5C 66.369,345.239 66.5357,345.906 67,346.5C 68.4216,344.362 70.255,343.195 72.5,343C 69.7236,344.779 70.0569,345.779 73.5,346C 70.6693,348.001 68.0026,350.167 65.5,352.5 Z"/></g>
<g><path style="opacity:1" fill="#696969" d="M 417.5,345.5 C 419.308,345.491 420.975,345.991 422.5,347C 420.465,347.599 418.799,347.099 417.5,345.5 Z"/></g>
<g><path style="opacity:1" fill="#e78469" d="M 321.5,346.5 C 323.5,347.167 325.5,347.833 327.5,348.5C 325.076,348.808 322.743,348.474 320.5,347.5C 320.624,346.893 320.957,346.56 321.5,346.5 Z"/></g>
<g><path style="opacity:1" fill="#686868" d="M 421.5,350.5 C 417.43,349.644 413.43,348.477 409.5,347C 413.921,346.864 417.921,348.031 421.5,350.5 Z"/></g>
<g><path style="opacity:1" fill="#7d7d7d" d="M 90.5,345.5 C 91.8734,345.343 93.2068,345.51 94.5,346C 89.1899,347.777 83.8566,349.11 78.5,350C 82.5711,348.37 86.5711,346.87 90.5,345.5 Z"/></g>
<g><path style="opacity:1" fill="#7c7c7c" d="M 90.5,350.5 C 92.5273,348.912 94.8606,348.412 97.5,349C 95.26,349.977 92.9267,350.477 90.5,350.5 Z"/></g>
<g><path style="opacity:1" fill="#6b6b6b" d="M 418.5,353.5 C 413.156,352.109 407.823,350.609 402.5,349C 408.305,348.993 413.639,350.493 418.5,353.5 Z"/></g>
<g><path style="opacity:1" fill="#656565" d="M 429.5,351.5 C 428.244,351.539 427.244,351.039 426.5,350C 427.998,349.415 428.998,349.915 429.5,351.5 Z"/></g>
<g><path style="opacity:1" fill="#8e8e8e" d="M 433.5,344.5 C 433.603,346.782 433.603,349.115 433.5,351.5C 431.142,349.471 428.808,347.471 426.5,345.5C 427.289,345.217 427.956,344.717 428.5,344C 427.328,343.581 426.328,342.915 425.5,342C 428.664,342.121 431.164,343.621 433,346.5C 433.464,345.906 433.631,345.239 433.5,344.5 Z"/></g>
<g><path style="opacity:0.988" fill="#040302" d="M 379.5,359.5 C 377.052,360.473 374.385,360.806 371.5,360.5C 362.53,359.336 353.53,358.336 344.5,357.5C 343.5,357.833 342.5,358.167 341.5,358.5C 317.565,387.631 286.565,402.631 248.5,403.5C 211.37,401.602 181.037,386.435 157.5,358C 144.478,358.736 131.478,360.069 118.5,362C 117.556,364.719 117.223,367.552 117.5,370.5C 117.335,373.518 117.502,376.518 118,379.5C 162.779,437.938 221.279,458.772 293.5,442C 329.037,431.577 358.037,411.744 380.5,382.5C 380.803,387.784 383.137,391.784 387.5,394.5C 384.179,399.152 380.513,403.485 376.5,407.5C 371.236,412.8 365.57,417.633 359.5,422C 358.177,422.816 357.511,423.983 357.5,425.5C 296.991,467.792 233.324,472.959 166.5,441C 159.348,436.671 152.348,432.171 145.5,427.5C 137.839,420.84 130.172,414.173 122.5,407.5C 119.167,403.167 115.833,398.833 112.5,394.5C 111.791,393.596 110.791,393.263 109.5,393.5C 112.926,391.401 115.259,388.401 116.5,384.5C 115.917,380.919 113.917,378.586 110.5,377.5C 110.5,376.833 110.833,376.5 111.5,376.5C 112.583,376.539 113.583,376.873 114.5,377.5C 115.494,372.544 115.827,367.544 115.5,362.5C 106.78,363.911 98.1133,365.577 89.5,367.5C 88.8333,367.5 88.5,367.167 88.5,366.5C 95.4832,364.787 102.483,362.953 109.5,361C 140.278,355.778 171.278,352.778 202.5,352C 261.744,349.437 320.744,351.937 379.5,359.5 Z"/></g>
<g><path style="opacity:1" fill="#5c5c5c" d="M 421.5,350.5 C 424.089,350.461 426.089,351.461 427.5,353.5C 425.181,353.008 423.181,352.008 421.5,350.5 Z"/></g>
<g><path style="opacity:1" fill="#828282" d="M 90.5,350.5 C 87.7855,352.236 84.7855,353.07 81.5,353C 84.3117,351.451 87.3117,350.618 90.5,350.5 Z"/></g>
<g><path style="opacity:1" fill="#a0a0a0" d="M 429.5,351.5 C 431.017,351.511 432.184,352.177 433,353.5C 433.399,353.272 433.565,352.938 433.5,352.5C 432.83,354.493 432.83,356.826 433.5,359.5C 431.5,357.5 429.5,355.5 427.5,353.5C 429.993,353.869 430.66,353.203 429.5,351.5 Z"/></g>
<g><path style="opacity:1" fill="#5e5e5e" d="M 69.5,355.5 C 70.0024,353.915 71.0024,353.415 72.5,354C 71.7562,355.039 70.7562,355.539 69.5,355.5 Z"/></g>
<g><path style="opacity:1" fill="#828282" d="M 92.5,352.5 C 94.3786,352.393 94.7119,352.893 93.5,354C 90.8738,354.995 88.2071,355.328 85.5,355C 88.0037,354.302 90.337,353.469 92.5,352.5 Z"/></g>
<g><path style="opacity:1" fill="#6e6e6e" d="M 418.5,353.5 C 420.308,353.491 421.975,353.991 423.5,355C 421.465,355.599 419.799,355.099 418.5,353.5 Z"/></g>
<g><path style="opacity:1" fill="#646464" d="M 420.5,357.5 C 417.432,356.978 414.432,356.145 411.5,355C 414.913,354.529 417.913,355.362 420.5,357.5 Z"/></g>
<g><path style="opacity:1" fill="#848484" d="M 69.5,355.5 C 68.8333,356.833 67.8333,357.833 66.5,358.5C 66.1254,357.207 65.7921,355.874 65.5,354.5C 66.601,353.2 67.9343,352.7 69.5,353C 67.1582,354.392 67.1582,355.225 69.5,355.5 Z"/></g>
<g><path style="opacity:1" fill="#707070" d="M 417.5,360.5 C 412.029,359.51 406.696,358.01 401.5,356C 407.228,356.264 412.561,357.764 417.5,360.5 Z"/></g>
<g><path style="opacity:1" fill="#888888" d="M 95.5,355.5 C 98.5983,355.413 98.9316,355.913 96.5,357C 89.4603,359.24 82.4603,361.24 75.5,363C 82.1603,360.173 88.827,357.673 95.5,355.5 Z"/></g>
<g><path style="opacity:1" fill="#d32e01" d="M 371.5,360.5 C 374.695,361.236 378.029,361.903 381.5,362.5C 382.666,365.837 382.666,369.17 381.5,372.5C 339.231,429.658 282.897,451.825 212.5,439C 171.908,428.199 140.242,405.366 117.5,370.5C 117.223,367.552 117.556,364.719 118.5,362C 131.478,360.069 144.478,358.736 157.5,358C 181.037,386.435 211.37,401.602 248.5,403.5C 286.565,402.631 317.565,387.631 341.5,358.5C 342.5,358.167 343.5,357.833 344.5,357.5C 353.53,358.336 362.53,359.336 371.5,360.5 Z"/></g>
<g><path style="opacity:1" fill="#5d5d5d" d="M 420.5,357.5 C 423.089,357.461 425.089,358.461 426.5,360.5C 424.181,360.008 422.181,359.008 420.5,357.5 Z"/></g>
<g><path style="opacity:1" fill="#9b9b9b" d="M 65.5,367.5 C 66.2799,364.618 66.6132,361.952 66.5,359.5C 66.369,360.239 66.5357,360.906 67,361.5C 68.4216,359.362 70.255,358.195 72.5,358C 69.7236,359.779 70.0569,360.779 73.5,361C 70.6693,363.001 68.0026,365.167 65.5,367.5 Z"/></g>
<g><path style="opacity:1" fill="#ececec" d="M 111.5,376.5 C 109.524,374.989 107.191,374.156 104.5,374C 98.5,373.333 92.5,373.333 86.5,374C 82.4563,374.273 78.9563,375.773 76,378.5C 75.2571,376.559 75.4238,374.726 76.5,373C 80.9227,371.115 85.256,369.281 89.5,367.5C 98.1133,365.577 106.78,363.911 115.5,362.5C 115.827,367.544 115.494,372.544 114.5,377.5C 113.583,376.873 112.583,376.539 111.5,376.5 Z"/></g>
<g><path style="opacity:1" fill="#8e8e8e" d="M 433.5,359.5 C 433.603,361.782 433.603,364.115 433.5,366.5C 431.142,364.471 428.808,362.471 426.5,360.5C 427.289,360.217 427.956,359.717 428.5,359C 427.328,358.581 426.328,357.915 425.5,357C 428.664,357.121 431.164,358.621 433,361.5C 433.464,360.906 433.631,360.239 433.5,359.5 Z"/></g>
<g><path style="opacity:1" fill="#8d8d8d" d="M 75.5,365.5 C 76.552,365.351 77.552,365.517 78.5,366C 76.5979,367.301 74.5979,367.968 72.5,368C 73.5707,367.148 74.5707,366.315 75.5,365.5 Z"/></g>
<g><path style="opacity:1" fill="#1e1d1d" d="M 423.5,311.5 C 428.706,313.873 432.873,317.54 436,322.5C 436.667,344.167 436.667,365.833 436,387.5C 434.895,390.937 432.728,393.437 429.5,395C 415.397,400.973 401.397,400.807 387.5,394.5C 383.137,391.784 380.803,387.784 380.5,382.5C 381.324,379.236 381.658,375.902 381.5,372.5C 382.666,369.17 382.666,365.837 381.5,362.5C 378.029,361.903 374.695,361.236 371.5,360.5C 374.385,360.806 377.052,360.473 379.5,359.5C 393.11,361.402 406.443,364.569 419.5,369C 424.666,371.08 429.333,373.913 433.5,377.5C 434.652,375.603 434.319,373.936 432.5,372.5C 434.842,372.225 434.842,371.392 432.5,370C 434.359,369.399 434.692,368.566 433.5,367.5C 433.5,367.167 433.5,366.833 433.5,366.5C 433.603,364.115 433.603,361.782 433.5,359.5C 432.83,356.826 432.83,354.493 433.5,352.5C 433.5,352.167 433.5,351.833 433.5,351.5C 433.603,349.115 433.603,346.782 433.5,344.5C 434.954,342.737 434.62,341.403 432.5,340.5C 432.5,340.167 432.5,339.833 432.5,339.5C 434.424,339.289 434.757,338.623 433.5,337.5C 433.5,337.167 433.5,336.833 433.5,336.5C 433.603,334.115 433.603,331.782 433.5,329.5C 434.954,327.737 434.62,326.403 432.5,325.5C 433.523,322.993 432.856,320.827 430.5,319C 425.899,316.202 421.232,313.702 416.5,311.5C 419.001,311.166 421.334,311.166 423.5,311.5 Z"/></g>
<g><path style="opacity:1" fill="#b0b0b0" d="M 429.5,366.5 C 431.017,366.511 432.184,367.177 433,368.5C 433.399,368.272 433.565,367.938 433.5,367.5C 434.692,368.566 434.359,369.399 432.5,370C 434.842,371.392 434.842,372.225 432.5,372.5C 430.52,371.516 428.853,370.183 427.5,368.5C 429.993,368.869 430.66,368.203 429.5,366.5 Z"/></g>
<g><path style="opacity:1" fill="#868686" d="M 427.5,368.5 C 424.738,367.62 422.071,366.454 419.5,365C 422.76,364.796 425.427,365.963 427.5,368.5 Z"/></g>
<g><path style="opacity:1" fill="#656565" d="M 429.5,366.5 C 428.244,366.539 427.244,366.039 426.5,365C 427.998,364.415 428.998,364.915 429.5,366.5 Z"/></g>
<g><path style="opacity:1" fill="#f3f3f3" d="M 384.5,362.5 C 397.687,365.005 410.687,368.338 423.5,372.5C 423.785,374.288 423.452,375.955 422.5,377.5C 416.57,374.38 410.237,373.047 403.5,373.5C 396.885,372.989 390.719,374.322 385,377.5C 384.501,372.511 384.334,367.511 384.5,362.5 Z"/></g>
<g><path style="opacity:1" fill="#696969" d="M 417.5,360.5 C 419.308,360.491 420.975,360.991 422.5,362C 420.465,362.599 418.799,362.099 417.5,360.5 Z"/></g>
<g><path style="opacity:1" fill="#919191" d="M 405.5,359.5 C 408.132,360.327 410.798,361.16 413.5,362C 411.473,362.498 409.473,362.331 407.5,361.5C 406.287,361.253 405.62,360.586 405.5,359.5 Z"/></g>
<g><path style="opacity:1" fill="#8f8f8f" d="M 66.5,373.5 C 66.1254,372.207 65.7921,370.874 65.5,369.5C 66.601,368.2 67.9343,367.7 69.5,368C 68.8333,368.667 68.1667,369.333 67.5,370C 69.6124,371.217 69.2791,372.383 66.5,373.5 Z"/></g>
<g><path style="opacity:1" fill="#f4a833" d="M 117.5,370.5 C 140.242,405.366 171.908,428.199 212.5,439C 282.897,451.825 339.231,429.658 381.5,372.5C 381.658,375.902 381.324,379.236 380.5,382.5C 358.037,411.744 329.037,431.577 293.5,442C 221.279,458.772 162.779,437.938 118,379.5C 117.502,376.518 117.335,373.518 117.5,370.5 Z"/></g>
<g><path style="opacity:1" fill="#f2f2f2" d="M 110.5,377.5 C 113.917,378.586 115.917,380.919 116.5,384.5C 115.259,388.401 112.926,391.401 109.5,393.5C 96.2637,397.985 83.2637,397.485 70.5,392C 66.6397,389.452 65.1397,385.952 66,381.5C 72.2935,372.96 74.9602,374.293 74,385.5C 75.2506,388.381 77.4173,390.214 80.5,391C 86.1667,391.667 91.8333,391.667 97.5,391C 105.761,389.315 108.427,384.481 105.5,376.5C 107.216,376.629 108.883,376.962 110.5,377.5 Z"/></g>
<g><path style="opacity:1" fill="#f2f2f2" d="M 86.5,375.5 C 92.1667,375.5 97.8333,375.5 103.5,375.5C 103.5,377.167 103.5,378.833 103.5,380.5C 97.8189,379.267 92.1523,379.267 86.5,380.5C 85.3336,378.833 85.3336,377.166 86.5,375.5 Z"/></g>
<g><path style="opacity:1" fill="#f3f3f3" d="M 396.5,375.5 C 401.844,375.334 407.177,375.501 412.5,376C 414.107,377.049 414.773,378.549 414.5,380.5C 408.614,379.338 402.781,379.338 397,380.5C 396.506,378.866 396.34,377.199 396.5,375.5 Z"/></g>
<g><path style="opacity:1" fill="#f5f5f5" d="M 427.5,375.5 C 433.503,378.58 435.003,383.246 432,389.5C 425.057,394.659 417.224,396.993 408.5,396.5C 399.416,397.26 391.582,394.593 385,388.5C 382.704,381.251 385.537,377.251 393.5,376.5C 391.775,383.445 394.108,388.278 400.5,391C 406.833,391.667 413.167,391.667 419.5,391C 422.185,389.839 424.185,388.006 425.5,385.5C 426.167,382.167 426.833,378.833 427.5,375.5 Z"/></g>
<g><path style="opacity:1" fill="#efefef" d="M 80.5,377.5 C 81.5,377.5 82.5,377.5 83.5,377.5C 83.1924,379.924 83.5258,382.257 84.5,384.5C 85.646,383.855 86.646,383.022 87.5,382C 92.8613,381.391 98.1946,381.558 103.5,382.5C 104.035,385.238 103.035,387.072 100.5,388C 94.235,389.484 87.9017,389.818 81.5,389C 76.8853,387.876 75.3853,385.043 77,380.5C 78.1451,379.364 79.3117,378.364 80.5,377.5 Z"/></g>
<g><path style="opacity:1" fill="#f1f1f1" d="M 416.5,377.5 C 421.647,378.465 423.814,381.465 423,386.5C 422.25,387.126 421.416,387.626 420.5,388C 414.235,389.484 407.902,389.818 401.5,389C 398.924,388.218 396.924,386.718 395.5,384.5C 396.09,383.201 397.09,382.368 398.5,382C 402.833,381.333 407.167,381.333 411.5,382C 412.966,382.635 414.3,383.469 415.5,384.5C 416.474,382.257 416.808,379.924 416.5,377.5 Z"/></g>
<g><path style="opacity:1" fill="#7f7f7f" d="M 427.5,375.5 C 426.833,378.833 426.167,382.167 425.5,385.5C 425.177,381.774 425.511,378.107 426.5,374.5C 427.107,374.624 427.44,374.957 427.5,375.5 Z"/></g>
<g><path style="opacity:1" fill="#faac34" d="M 162.5,384.5 C 164.318,389.816 167.984,393.316 173.5,395C 168,396.5 164.5,400 163,405.5C 161.594,400.427 158.428,396.927 153.5,395C 158.488,393.18 161.488,389.68 162.5,384.5 Z"/></g>
<g><path style="opacity:1" fill="#faab34" d="M 335.5,385.5 C 338.313,389.467 341.979,392.634 346.5,395C 342.028,396.972 338.695,400.138 336.5,404.5C 335.041,402.417 333.708,400.25 332.5,398C 330.5,397 328.5,396 326.5,395C 331.079,393.256 334.079,390.09 335.5,385.5 Z"/></g>
<g><path style="opacity:0.989" fill="#d32b00" d="M 122.5,407.5 C 130.172,414.173 137.839,420.84 145.5,427.5C 138.069,436.104 130.402,444.604 122.5,453C 111.242,456.133 103.075,452.3 98,441.5C 97.2617,437.739 97.5951,434.072 99,430.5C 106.702,422.631 114.535,414.964 122.5,407.5 Z"/></g>
<g><path style="opacity:1" fill="#fce7e2" d="M 210.5,408.5 C 213.789,409.374 217.123,410.041 220.5,410.5C 220.5,411.5 220.5,412.5 220.5,413.5C 218.063,413.244 215.729,412.577 213.5,411.5C 212.167,412.833 212.167,414.167 213.5,415.5C 215.225,416.015 216.892,416.682 218.5,417.5C 218.167,418.5 217.5,419.167 216.5,419.5C 214.591,418.652 212.591,418.318 210.5,418.5C 210.5,419.833 210.5,421.167 210.5,422.5C 208.654,422.778 207.32,422.111 206.5,420.5C 207.838,416.47 209.172,412.47 210.5,408.5 Z"/></g>
<g><path style="opacity:0.993" fill="#d32b00" d="M 376.5,407.5 C 384.829,415.661 393.329,423.661 402,431.5C 405.346,443.856 400.679,451.523 388,454.5C 385.366,454.066 382.866,453.233 380.5,452C 372.968,442.974 365.302,434.141 357.5,425.5C 357.511,423.983 358.177,422.816 359.5,422C 365.57,417.633 371.236,412.8 376.5,407.5 Z"/></g>
<g><path style="opacity:1" fill="#fce9e5" d="M 283.5,408.5 C 285.167,408.5 286.833,408.5 288.5,408.5C 288.5,409.5 288.5,410.5 288.5,411.5C 286.023,411.051 284.023,411.717 282.5,413.5C 285.157,414.259 287.823,414.926 290.5,415.5C 293.437,418.865 292.77,421.365 288.5,423C 280.034,423.358 279.701,422.525 287.5,420.5C 288.386,419.675 288.719,418.675 288.5,417.5C 285.552,417.777 282.719,417.444 280,416.5C 278.78,412.707 279.947,410.04 283.5,408.5 Z"/></g>
<g><path style="opacity:1" fill="#fcebe7" d="M 227.5,412.5 C 237.319,413.104 239.985,417.604 235.5,426C 226.42,429.215 222.253,426.048 223,416.5C 224.397,414.93 225.897,413.596 227.5,412.5 Z"/></g>
<g><path style="opacity:1" fill="#fce8e2" d="M 265.5,412.5 C 275.056,412.2 278.056,416.367 274.5,425C 270.792,427.132 266.792,427.965 262.5,427.5C 262.46,422.807 262.127,418.141 261.5,413.5C 263.099,413.768 264.432,413.434 265.5,412.5 Z"/></g>
<g><path style="opacity:1" fill="#fceae5" d="M 245.5,414.5 C 253.167,413.024 257,416.024 257,423.5C 254.459,428.069 250.625,429.569 245.5,428C 240.209,423.423 240.209,418.923 245.5,414.5 Z"/></g>
<g><path style="opacity:1" fill="#d63a12" d="M 228.5,415.5 C 234.643,416.026 235.976,418.86 232.5,424C 227.824,424.986 225.658,423.152 226,418.5C 226.698,417.309 227.531,416.309 228.5,415.5 Z"/></g>
<g><path style="opacity:1" fill="#d73c15" d="M 264.5,415.5 C 271.997,414.804 273.997,417.637 270.5,424C 268.866,424.494 267.199,424.66 265.5,424.5C 265.492,421.455 265.159,418.455 264.5,415.5 Z"/></g>
<g><path style="opacity:1" fill="#d5350b" d="M 246.5,417.5 C 253.158,416.344 255.158,418.844 252.5,425C 245.75,426.469 243.75,423.969 246.5,417.5 Z"/></g>
</svg>
